<svg width="37" height="34" viewBox="0 0 37 34" fill="none" xmlns="http://www.w3.org/2000/svg">
<path d="M18.0194 0.998657C16.2389 0.998657 14.4596 2.82967 14.4596 7.09472C14.4596 13.161 16.3878 18.1279 18.0194 21.3755C19.6511 18.1279 21.5789 13.1614 21.5789 7.09472C21.5789 2.82967 19.7992 0.998657 18.0194 0.998657Z" fill="#111111"/>
<path d="M0.347952 31.5948C1.23802 33.1371 3.71383 33.7624 7.40728 31.6299C12.6613 28.5966 15.9982 24.4432 17.995 21.4065C14.3669 21.6171 9.10139 22.431 3.84742 25.4648C0.153971 27.5969 -0.541703 30.0541 0.347952 31.5948Z" fill="#111111"/>
<path d="M35.6905 31.5948C34.8009 33.1371 32.3246 33.7624 28.6316 31.6299C23.3776 28.5966 20.0407 24.4432 18.0434 21.4065C21.6719 21.6171 26.9371 22.431 32.1915 25.4648C35.8841 27.5969 36.5802 30.0541 35.6905 31.5948Z" fill="#111111"/>
</svg>
